<?xml version="1.0" encoding="utf-8"?>
<!-- Generator: Adobe Illustrator 19.0.0, SVG Export Plug-In . SVG Version: 6.00 Build 0)  -->
<svg version="1.1" id="layer" xmlns="http://www.w3.org/2000/svg" xmlns:xlink="http://www.w3.org/1999/xlink" x="0px" y="0px"
	 viewBox="-153 -46 652 652" style="enable-background:new -153 -46 652 652;" xml:space="preserve">
<style type="text/css">
	.st0{fill:#006BB6;}
	.st1{fill:#F7CF64;}
	.st2{fill:#ED1C2E;}
</style>
<path class="st0" d="M144.8,245.3c-26.5,13.2-45,40.6-45,40.6c2,5.3,3.1,9.7,3.1,9.7c1.3-0.7,22.8-6.6,22.8-6.6
	c13.4-22.4,36-29.8,36-29.8c-11.6-7.9-13.2-34-18.2-36.2c-46.7-28.5-79.6-25.4-79.6-25.4c3.9,8.3,7.9,18.4,7.9,18.4
	C123.5,225.3,144.8,245.3,144.8,245.3 M-62,292c0-1.8-1.1-2.9-3.5-2.9h-8.3l-8.3-0.2c-1.3,0-4.4,0-4.4,2.9c0,2.4,2,2.4,3.3,2.6h1.1
	c2,0.2,3.5,0.9,4.4,2.9c0.7,1.5,0.7,4.8,0.7,6.6v21.5c-2.6-3.3-25.7-32.9-25.7-32.9l-0.7-0.9c-1.8-2.4-2.2-2.6-5.9-2.6h-16.7
	c-1.3,0-3.9,0-3.9,2.6c0,2.6,2.6,2.9,3.9,2.9h0.4c3.5,0.2,3.7,2.9,3.5,6.8v32.9c0,3.1,0,7.5-0.9,9.9c-0.7,1.8-1.3,2.4-3.3,2.4h-0.7
	c-1.5,0-4.2,0.2-4.2,2.9c0,1.8,1.3,2.9,3.3,2.9l9-0.4l9,0.4c2.2,0,3.7-1.1,3.7-2.9c0-2.6-2.9-2.9-4.2-2.9h-0.4
	c-2.4-0.2-3.9-0.7-4.8-3.1c-0.7-2-0.7-7-0.7-9.2V304c2.9,3.5,36.4,46.5,36.4,46.5l0.4,0.7c1.3,1.8,2.6,3.5,5,3.5
	c1.3,0,2.2-0.2,2.9-0.9c0.7-0.7,0.7-1.8,0.7-2.6v-49.4v-1.1c0-3.5,0.4-5.7,3.3-6.1h1.1c1.3,0,2.9,0,3.7-0.9
	C-62.3,293.3-62,292.6-62,292 M-27.4,348.1c-7.5,0-12.3-7-14.3-11.2c-2.6-5.5-4.2-12.1-4.2-19.1c0-8.8,3.1-25,15.1-25
	c14,0,18.4,20.4,18.4,30.3C-12.2,331.7-15.5,348.1-27.4,348.1 M-30.2,287.6c-9.4,0-17.5,3.3-23.9,9.9c-6.1,6.1-9.9,14.7-9.9,23.3
	c0,9.7,4.2,18.9,11.2,24.4c5.9,4.8,15.8,8.1,24.4,8.1c19.1,0,34-14.5,34-32.9C5.5,299.2-12.9,287.6-30.2,287.6 M56.9,300.5
	c1.1-2.9,2.2-5.5,5.3-5.9H63c1.3,0,3.7-0.2,3.7-2.4c0-0.9-0.4-2.9-3.5-2.9l-8.1,0.2l-8.1-0.2c-1.1,0-3.7,0-3.7,2.6s2.4,2.6,3.7,2.6
	h1.1c1.1,0.2,2.9,0.7,2.9,2.6c0,1.3-0.9,3.9-1.8,5.9l-10.5,26.3c-1.3-3.3-12.1-29.8-12.1-29.8c-0.4-1.1-1.1-2.6-1.1-3.5
	s0.9-1.5,1.5-1.5h1.1c1.8,0,4.4,0,4.4-2.9c0-0.7-0.2-1.3-0.7-1.8c-0.9-0.9-2.4-0.9-3.5-0.9h-0.2l-11,0.4l-13.4-0.4H3.3
	c-1.1,0-2.4,0-3.3,0.9c-0.4,0.4-0.7,1.1-0.7,1.8c0,2.9,2.2,2.9,3.1,3.1h0.2c1.5,0.2,2.4,0.2,3.1,1.3c1.1,1.3,2.4,4.6,2.9,5.7
	l20,47.4l0.2,0.9c0.7,2,1.3,3.3,4.2,3.3c2.4,0,3.1-1.3,3.7-3.3l19.5-47.8C56,302.3,56.9,300.5,56.9,300.5z M66.9,327.5l1.1-2.6
	c0.2-0.4,0.4-1.1,0.7-1.8l0.4-1.1c0,0,3.9-9.9,5.5-14.3c1.1,3.1,5.5,14.3,5.5,14.3l0.4,1.1c0,0,1.5,3.9,1.5,4.2h0.2
	C82.3,327.3,66.9,327.5,66.9,327.5z M111,346.6h-0.7c-1.5,0-2.2-0.4-3.3-2c-0.9-1.3-2-3.7-2.2-4.8l-19.5-47.6l-0.4-1.1
	c-0.9-2.2-1.3-3.3-4.4-3.3c-3.7,0-4.6,1.8-5.5,4.4l-0.4,1.1l-11,26.8l-5.3,13.6l-0.9,2.6c-0.9,2.6-2.2,5.7-3.1,7.5
	c-1.3,2.4-2,2.4-4.6,2.9c-1.3,0.2-3.3,0.4-3.3,2.9c0,1.3,0.7,2.9,3.7,2.9l9-0.2l9,0.2c3.5,0,3.9-1.8,3.9-2.9c0-2.6-2.6-3.1-4.6-3.3
	c-3.1-0.4-5.3-0.7-5-3.7c0.2-1.3,0.7-3.1,1.1-3.9l0.2-0.9l0.2-0.4c0.7-2,1.1-3.3,3.7-3.3h13.4c3.7-0.2,3.7,1.8,4.6,3.7l0.2,0.7
	l1.5,3.7c0.4,0.9,0.9,2.4,0.9,3.5c0,0.9-0.7,1.1-2.6,1.3c-1.8,0.2-3.9,0.4-3.9,2.9c0,2,1.3,2.9,3.7,2.9l13.8-0.4l11.6,0.4
	c1.1,0,3.9,0,3.9-2.9C114.8,346.6,112.4,346.6,111,346.6 M421.2,327.5L421.2,327.5l1.1-2.6c0.2-0.4,0.4-1.1,0.7-1.8l0.4-1.1
	c0,0,3.9-9.9,5.5-14.3c1.1,3.1,5.5,14.3,5.5,14.3l0.4,1.1c0,0,1.5,3.9,1.5,4.2h0.2L421.2,327.5L421.2,327.5z M465.3,346.6h-0.7
	c-1.5,0-2.2-0.4-3.3-2c-0.9-1.3-2-3.7-2.2-4.8l-19.5-47.6l-0.4-1.1c-0.9-2.2-1.3-3.3-4.4-3.3c-3.7,0-4.6,1.8-5.5,4.4l-0.4,1.1
	l-11,26.8l-5.3,13.6l-0.9,2.6c-0.9,2.6-2.2,5.7-3.1,7.5c-1.3,2.4-1.8,2.6-4.4,3.1h-0.9c-0.2,0-0.4,0-0.9-0.2
	c-4.8-0.9-4.8-2.4-4.8-7.2v-37.1c0-5.5,0-6.6,5.3-7.5c1.3-0.2,3.3-0.7,3.3-2.9c0-1.8-1.1-2.6-3.1-2.6l-6.8,0.2l-6.8,0.2l-14.5-0.4
	c-0.7,0-3.1,0-3.1,2.6c0,2.2,2.2,2.6,3.3,2.6h0.4c4.8,0.9,4.8,2.4,4.8,7.5v36.9c0,5.7,0,6.6-5.3,7.5c-2.6,0.4-3.3,2-3.3,3.1
	c0,1.3,0.4,2.6,3.1,2.6l13.6-0.4l14.5,0.4h1.3l9-0.2l9,0.2c3.5,0,3.9-1.8,3.9-2.9c0-2.6-2.6-3.1-4.6-3.3c-3.1-0.4-5.3-0.7-5-3.7
	c0.2-1.3,0.7-3.1,1.1-3.9l0.2-0.9l0.2-0.4c0.7-2,1.1-3.3,3.7-3.3h13.4c3.7-0.2,3.7,1.8,4.4,3.7l0.2,0.7l1.3,3.7
	c0.4,0.9,0.9,2.4,0.9,3.5c0,0.9-0.7,1.1-2.6,1.3c-1.8,0.2-3.9,0.4-3.9,2.9c0,2,1.3,2.9,3.7,2.9l13.8-0.4l11.6,0.4
	c1.1,0,3.9,0,3.9-2.9C469.1,346.6,466.6,346.6,465.3,346.6 M158.6,310.6l-4.8-1.8c-3.9-1.3-8.1-3.1-8.1-7.7c0-4.8,5-7.9,9.9-7.9
	c4.6,0,7.9,3.1,10.1,10.1c0.2,0.9,0.9,3.3,3.3,3.3c0.9,0,1.3-0.2,1.8-0.7c0.9-0.9,0.9-2.4,0.9-3.5v-7.7c0-1.5,0-3.3-2-4.4
	c-3.1-1.8-9.4-2.6-12.7-2.6c-12.3,0-25.4,7.9-25.4,20.6c0,10.7,10.7,15.4,17.1,18.2l2,0.9c5.5,2.2,11.6,4.6,11.6,11.2
	c0,7-7.2,9.7-12.1,9.7c-2.6,0-6.6-0.7-9.2-3.3c-2-2.2-2.6-4.4-3.5-7.5l-0.2-0.9c-0.4-1.8-1.1-4.6-3.7-4.6c-0.7,0-1.3,0.2-1.8,0.7
	c-1.1,1.1-1.1,3.3-1.1,4.8v6.8c0,2.6,0,4.4,3.1,6.1c4.2,2,11.6,3.3,16.2,3.3c7.2,0,13.2-2,18-6.1c5-4.4,7.9-10.3,7.9-16.2
	C176,318.1,166.8,313.5,158.6,310.6 M236.5,333c-1.8,0-2.6,1.5-3.1,2.6c-1.5,2.9-3.3,6.4-5.9,8.8c-2.9,2.4-6.1,3.5-9.4,3.5
	c-6.1,0-11.6-3.5-15.4-9.4c-2.9-4.8-4.6-11.4-4.6-18.4s1.8-13.8,5-18.4c3.7-5.3,9.2-8.6,14.9-8.6c7.7,0,10.5,4.2,12.7,7.7
	c1.3,2.2,2.6,3.9,4.6,3.9c1.5,0,2.6-1.1,2.6-2.4l-0.4-2.9v-0.2l-0.7-5V294c-0.4-2.9-0.7-3.5-3.5-4.4c-4.4-1.3-9.9-2.2-14.5-2.2
	c-10.1,0-20.2,3.1-27,8.3c-7.9,6.1-12.5,15.1-12.5,25c0,9.4,4.8,19.1,12.3,25c6.1,4.6,15.4,7.5,25.4,7.5c5,0,12.5-0.9,18.6-4.6
	c3.1-2,3.3-3.5,3.3-6.4v-0.4l0.2-4.2v-1.1c0-0.9-0.2-2-0.9-2.9C238.1,333.4,237.4,333,236.5,333 M368.1,292l-1.1,10.5
	c-0.2,1.5-0.4,4.2-2.9,4.2c-1.1,0-2.6-0.7-3.7-3.5c-2.6-6.8-3.5-8.3-11.2-8.3c-1.8,0-1.8,0-1.8,2v42.3c0,5,0,6.6,4.8,7.2
	c1.1,0.2,3.7,0.7,3.7,3.1c0,0.9-0.2,2.6-3.1,2.6l-14.5-0.4l-13.6,0.4c-2.6,0-3.1-1.5-3.1-2.6s0.7-2.6,3.3-3.1c5-0.9,5.3-1.8,5.3-6.8
	v-42.8c0-0.7,0-1.5-0.2-1.5c-0.2-0.2-1.1-0.2-1.8-0.2c-5.9,0-8.3,2.2-11.8,7.5c-1.5,2.6-3.1,3.7-4.6,3.7c-1.5,0-2.4-1.1-2.4-3.1
	l0.4-2l0.2-0.4l2.4-9.9c0,0,0.7-2.2,3.3-2.2c5.9-0.2,13.4,1.1,49.6,0.2C365.5,289.1,368.4,289.1,368.1,292 M276.2,287.2
	c-3.5-3.5-12.5-11.4-33.8-22.6c-11.6-6.1-26.5-13.2-45.6-20.6c0,0,11.6-15.4,57.3-20.4c0,0,0-13.2-1.1-17.3c0,0-28.7-3.3-64.7,20.6
	c0,0-1.1,10.3,1.8,17.3c0,0,3.7,9.2-0.7,17.5c0,0,26.1,6.6,50.5,23c0,0,15.8,1.8,27.2,3.3c-1.3,0.2-2,0.4-2,0.4
	c-5.9,1.3-11,4.4-15.4,8.8c-6.1,6.1-9.9,14.7-9.9,23.3c0,9.7,4.2,18.9,11.2,24.4c5.9,4.8,15.8,8.1,24.4,8.1c19.1,0,34-14.5,34-32.9
	C309.4,299.4,292.7,288.3,276.2,287.2L276.2,287.2z M276.4,347.5c-7.5,0-12.3-7-14.3-11.2c-2.6-5.5-4.2-12.1-4.2-19.1
	c0-8.8,3.1-25.2,15.1-25.2c14,0,18.4,20.4,18.4,30.3C291.6,331,288.3,347.5,276.4,347.5z"/>
<path class="st1" d="M143.3,221.6c2.2,12.7,6.4,23,6.4,23c6.1,14.9,20.2,19.5,20.2,19.5c7.7,3.3,9,4.8,9,4.8
	c21.5-7.9,12.5-26.5,12.5-26.5c-2.9-8.6-2.6-15.1-2.6-17.1c0,0,0-1.3-0.7-1.1l-2.2,0.4c-1.1,0.2-2,0.2-2.2,0.2
	c-4.4,0.2-8.8-1.1-8.8-1.1c-9.2-2.6-14.7-3.5-14.7-3.5c-1.8-0.2-3.5-0.2-5.3-0.2C147.9,220,143.3,221.6,143.3,221.6"/>
<path class="st2" d="M170.9,256.2c0,0-3.3-3.7,1.8-2.6h0.4c0.4,0,0.9,0,0.9,0.4c0.4,1.1,0.9,1.8,1.8,2.2c0,0,0.9,0.4,3.1,0.4
	c0,0-0.2,1.3-1.5,2.2c0,0-1.1,0.4-0.9,2.2c0,0-0.9,0.2-2-0.4c0,0-1.5-0.4-1.5,0.9c0,0,1.3-0.4,1.8,0.2c0,0-1.8,0.4-0.9,2
	c0,0,1.3,0.4,2.6-1.5c0,0,0.2,0.2,0.2,0.4c0,0-1.8,0.4,1.1,2.6c0,0-0.7-2.2,0.4-2.2c0,0,1.1,0.2,1.5,1.5c0,0,0.2-1.5,0.9-1.8
	c0,0-2-2,0.2-1.5c0,0,0.4-0.2-0.4-0.9c0,0,0.9-0.4,1.5,0c0,0-0.2-0.4-0.2-0.7h1.3c0,0-2-0.9,0.7-2c0,0-1.3-0.7,0-0.9
	c0,0,0.7,0,0.4-1.5c0,0-3.9,2.4-4.8-2.4c0,0,2.4-0.9,3.3,1.5c0,0,0.4-0.4-0.2-1.8c0,0,1.8-0.9,0.7-5.5c0,0-0.2-0.4,1.1-0.9
	c0,0,2-1.3-1.5-2.4c0,0,1.5,1.8-0.2,2.2c0,0-4.2-5-2.2-9.9c0,0,0.9-2.6,0.4-5c-0.4-2-3.3-4.6-6.4-2.9c0,0,2.6,0.7,2.4,2.9
	c-0.2,1.3-1.8,3.1-0.4,6.8c0.7,2,1.8,4.2,3.5,5.9c0,0,1.1,1.3,1.5,2.4c0,0-0.9-0.4-1.8-0.7c0,0-2.4-0.2,0.2,2.4
	c-0.2-0.2-1.5-1.8,2-0.9c0,0,2.2,4.2-0.2,4.6c0,0-1.5,0.2-2.9-1.3c0,0-2.2-2.9-3.1-3.7c0,0-3.1-2.6-3.3-6.8c0,0-0.2-1.5,1.1-1.8V238
	c-2.6-2.9-0.9-4.4-0.9-4.4c0.4,0,0.7-0.2,0.7-0.2s-1.5-1.8-1.5-2s0.7-0.7,0.7-0.7l-0.9-0.9c-0.7-0.2-0.9-2.6-0.9-2.6l-0.7,0.2
	c-0.7-1.1-1.8-2-1.8-2c0,1.1-2.2,1.3-2.2,1.3c-1.1-0.7-2.4,0-2.4,0c-1.3-0.2,0,1.3,0,1.3c0.2,0.9,2,1.5,2,1.5l1.5,0.9
	c-0.2,0.2-0.9,0.2-0.9,0.2c-1.3-0.9-2.6-0.7-2.6-0.7c-1.1,0.7-1.3-0.7-1.3-0.7c-0.9,1.5,2,1.5,2,1.5c2,0,2.6,0.9,2.6,0.9
	c-1.8-0.2-1.8,0.7-1.8,0.7c-1.3-0.2-1.5,0.9-1.5,0.9c-0.9,0.2-0.4,1.5-0.4,1.5c1.8,2,0.2,1.5-1.3,1.1l-0.9-0.2
	c0.2-1.5-1.3-4.4-1.3-4.4c-2.2-3.5-1.3-4.2-1.3-4.2c1.5-1.8-0.4-2.2-0.4-2.2c0.4,0.9-0.2,1.1-0.2,1.1c-1.3-2-2.4-1.8-2.4-1.8
	c1.5,1.5,0.9,2,0.9,2c-2.2-2-3.1-1.1-3.1-1.1c1.1,0.2,1.1,1.3,1.1,1.3c0.4,0.9,1.1,0.7,1.1,0.7c1.1,0.9,0,0.9,0,0.9
	c-0.2-0.4-0.7,0-0.7,0h-1.1c0.2,1.5,2.6,1.5,2.6,1.3c2,2.9,0.4,3.9,0.4,3.9c1.5,2.9,0,2.9,0,2.9c0.9,0,1.3,0.9,1.3,0.9
	c0.2,0.9-1.1,0.9-1.1,0.9c0.9,0.9,2.6,0.9,2.6,0.9c0.9,0.9,1.5,1.1,1.5,1.1c0.7,0.4,1.5,0.7,2.6,0.7c0,0.2,0,0.2,0.2,0.4
	c0,0-2.9,2.2-5.9,2c0,0-0.4-0.4-0.9-1.1c0,0-1.1-0.9-1.3,0c0,0,1.3,0.4,1.1,1.3l-1.8-0.4c0,0,0.2,0.4,0.4,0.7c0,0,0.2,0.9,2,0.4
	c0,0,0.2,0.4,0,0.4c0,0-0.9,0.2-0.7,1.3c0,0,0.9,0,1.1-0.2c0,0,0.4-0.2,0.2-0.7h0.9c0,0,1.3-0.2,0.7,1.1c0,0,0.4,0.2,1.1-1.1
	c0,0,0.9-0.4,1.1,0.7c0,0,0.4-1.1,1.5-0.9c0,0,0,0.2-0.2,0.7c0,0,0.7,0.4,0.9-0.4c0,0,1.1-0.4,1.1,0.4c0,0,0.4-1.3,0.4-1.5
	c0,0,1.8,0.7,1.5,1.3c0,0,0.2,0.2,0.9,0c0,0,2,2,4.4,3.9c-1.3,0-2,0-2.4,0.2l-0.7-0.2c0,0-1.5-0.4-2,0.2c0,0-1.3,0.7-0.7,2.9
	c0,0-0.4,1.5-1.3,0.7c0,0-1.3-0.9-2.6-1.1c0,0-1.8-0.7-2.4-1.8c0,0-0.9-1.3-2.2,0c0,0,0.9,0.2,1.3,0.9c0,0,0.7,0.4,1.1,0.7
	c0,0,0.2,0.2,0.2,0.4c0,0-2.9-0.4-2,1.5c0,0,0.4-0.7,1.3,0.2c0,0,0.9,0.2,1.1-0.4c0,0,1.1,0.7-0.2,1.8c0,0,0.9,0.7,1.8-0.9
	c0,0,1.1,0.2,1.8,2c0,0,1.3-1.8,2,0.2c0,0,0.4-1.1,0.9,0.7c0,0,0.9,0.7,1.5,0C169.2,256,169.4,256.7,170.9,256.2"/>
</svg>
